<svg width="52" height="52" viewBox="0 0 52 52" fill="none" xmlns="http://www.w3.org/2000/svg">
<path d="M46.1643 0.487808C47.6947 0.487808 49.1625 1.0894 50.2447 2.16024C51.3269 3.23107 51.9348 4.68344 51.9348 6.19784V46.168C51.9348 47.6824 51.3269 49.1348 50.2447 50.2056C49.1625 51.2765 47.6947 51.8781 46.1643 51.8781H5.77054C4.2401 51.8781 2.77234 51.2765 1.69015 50.2056C0.607965 49.1348 0 47.6824 0 46.168V6.19784C0 4.68344 0.607965 3.23107 1.69015 2.16024C2.77234 1.0894 4.2401 0.487808 5.77054 0.487808H46.1643ZM44.7217 44.7405V29.6089C44.7217 27.1405 43.7307 24.7731 41.9667 23.0277C40.2027 21.2822 37.8103 20.3016 35.3157 20.3016C32.8632 20.3016 30.0068 21.7862 28.6219 24.0131V20.8441H20.572V44.7405H28.6219V30.6653C28.6219 28.4669 30.4107 26.6683 32.6324 26.6683C33.7037 26.6683 34.7311 27.0894 35.4887 27.839C36.2462 28.5886 36.6718 29.6052 36.6718 30.6653V44.7405H44.7217ZM11.1948 16.3617C12.4804 16.3617 13.7133 15.8563 14.6224 14.9568C15.5314 14.0573 16.0421 12.8374 16.0421 11.5653C16.0421 8.9101 13.8781 6.74029 11.1948 6.74029C9.90162 6.74029 8.66136 7.24863 7.74691 8.15349C6.83247 9.05835 6.31874 10.2856 6.31874 11.5653C6.31874 14.2204 8.51154 16.3617 11.1948 16.3617ZM15.2054 44.7405V20.8441H7.21317V44.7405H15.2054Z" fill="#89CFF0"/>
</svg>
